<?xml version="1.0" encoding="UTF-8" ?>
<!DOCTYPE svg PUBLIC "-//W3C//DTD SVG 1.1//EN" "http://www.w3.org/Graphics/SVG/1.1/DTD/svg11.dtd">
<svg width="562pt" height="616pt" viewBox="0 0 562 616" version="1.1" xmlns="http://www.w3.org/2000/svg">
<g id="#ffffffff">
<path fill="#ffffff" opacity="1.00" d=" M 0.00 0.00 L 331.38 0.00 C 366.34 3.14 400.48 14.92 429.85 34.16 C 454.73 50.35 476.08 71.79 492.63 96.41 C 509.64 120.68 524.84 146.33 536.29 173.70 C 551.89 210.36 560.79 249.87 562.00 289.71 L 562.00 310.22 C 561.13 330.55 559.53 350.92 555.29 370.86 C 547.70 407.95 532.99 443.54 512.26 475.21 C 500.87 492.79 487.42 508.94 472.97 524.07 C 496.15 554.72 519.27 585.40 542.50 616.00 L 387.98 616.00 C 381.99 608.26 376.20 600.37 370.19 592.64 C 335.69 606.85 298.65 614.74 261.36 616.00 L 0.00 616.00 L 0.00 369.56 C 5.31 369.56 10.61 369.56 15.92 369.56 C 15.96 349.04 15.91 328.53 15.95 308.01 C 43.40 307.98 70.86 308.02 98.31 307.99 C 65.57 275.17 32.72 242.45 0.00 209.61 L 0.00 0.00 M 169.07 122.67 C 215.67 184.46 262.26 246.25 308.88 308.01 C 319.73 308.14 330.64 306.71 340.90 303.13 C 363.68 295.39 383.00 278.34 393.87 256.92 C 402.79 239.55 405.99 219.28 402.67 200.02 C 402.09 196.89 399.51 194.74 397.75 192.25 C 364.36 150.17 311.91 123.39 258.03 122.73 C 228.38 122.62 198.72 122.73 169.07 122.67 M 391.28 416.02 C 393.08 418.45 394.99 420.81 396.67 423.34 C 400.46 418.80 403.85 413.96 407.30 409.17 C 402.08 411.72 396.69 413.91 391.28 416.02 M 139.26 431.26 C 139.25 451.75 139.25 472.25 139.26 492.74 C 176.84 492.76 214.42 492.74 252.01 492.75 C 261.59 492.77 271.19 492.03 280.64 490.38 C 261.03 470.62 241.32 450.95 221.59 431.31 C 194.14 431.18 166.70 431.28 139.26 431.26 Z" />
</g>
</svg>
